<svg xmlns="http://www.w3.org/2000/svg" viewBox="0 0 24 24"><defs><style>.cls-1{fill:#f7f7f7;}</style></defs><g id="Capa_2" data-name="Capa 2"><g id="Layer_1" data-name="Layer 1"><path class="cls-1" d="M22.5,9H22V8a5,5,0,0,0-5-5H13V1a1,1,0,0,0-2,0V3H7A5,5,0,0,0,2,8V9H1.5A1.5,1.5,0,0,0,0,10.5v3A1.5,1.5,0,0,0,1.5,15H2v1a5,5,0,0,0,5,5h7.7l4,2.64a2.13,2.13,0,0,0,1.19.36A2.13,2.13,0,0,0,22,21.85V15h.5A1.5,1.5,0,0,0,24,13.5v-3A1.5,1.5,0,0,0,22.5,9ZM20,21.85a.14.14,0,0,1-.08.13.13.13,0,0,1-.15,0l-4.21-2.81A1,1,0,0,0,15,19H7a3,3,0,0,1-3-3V8A3,3,0,0,1,7,5H17a3,3,0,0,1,3,3ZM7,9.5A1.5,1.5,0,1,1,8.5,11,1.5,1.5,0,0,1,7,9.5Zm10,0A1.5,1.5,0,1,1,15.5,8,1.5,1.5,0,0,1,17,9.5Zm-.15,4.69a1,1,0,0,1-.32,1.38A8.74,8.74,0,0,1,12,17a8.77,8.77,0,0,1-4.53-1.43,1,1,0,1,1,1.06-1.69A6.79,6.79,0,0,0,12,15a6.79,6.79,0,0,0,3.47-1.12,1,1,0,0,1,1.38.31Z"/></g></g></svg>