<svg xmlns="http://www.w3.org/2000/svg" viewBox="0 0 24 24"><defs><style>.cls-1{fill:#f7f7f7;}</style></defs><g id="Capa_2" data-name="Capa 2"><g id="Layer_1" data-name="Layer 1"><path class="cls-1" d="M19,4H17.9A5,5,0,0,0,13,0H5A5,5,0,0,0,0,5V17.85a2.13,2.13,0,0,0,1.13,1.89,2.07,2.07,0,0,0,1,.26,2.16,2.16,0,0,0,1.19-.36l3-2A5,5,0,0,0,11,21h5.7l4,2.64a2.13,2.13,0,0,0,1.19.36,2.07,2.07,0,0,0,1-.26A2.13,2.13,0,0,0,24,21.85V9a5,5,0,0,0-5-5ZM2.23,18a.15.15,0,0,1-.15,0A.14.14,0,0,1,2,17.85V5A3,3,0,0,1,5,2h8a3,3,0,0,1,3,3v7a3,3,0,0,1-3,3H7a1.1,1.1,0,0,0-.57.17L2.23,18ZM22,21.85a.14.14,0,0,1-.08.13.15.15,0,0,1-.15,0l-4.22-2.82A1,1,0,0,0,17,19H11a3,3,0,0,1-2.83-2H13a5,5,0,0,0,5-5V6h1a3,3,0,0,1,3,3V21.85Z"/></g></g></svg>