<svg xmlns="http://www.w3.org/2000/svg" viewBox="0 0 24 24"><defs><style>.cls-1{fill:#f7f7f7;}.cls-2{fill:none;}</style></defs><g id="Capa_2" data-name="Capa 2"><g id="Layer_1" data-name="Layer 1"><path class="cls-1" d="M17,14a1,1,0,0,1-1,1H8a1,1,0,0,1,0-2h8A1,1,0,0,1,17,14Zm-4,3H8a1,1,0,0,0,0,2h5a1,1,0,0,0,0-2Zm9-6.51V19a5,5,0,0,1-5,5H7a5,5,0,0,1-5-5V5A5,5,0,0,1,7,0h4.52a7,7,0,0,1,4.95,2.05L20,5.54A6.92,6.92,0,0,1,22,10.49Zm-6.95-7A5.4,5.4,0,0,0,14,2.68V7a1,1,0,0,0,1,1h4.32a5.4,5.4,0,0,0-.78-1Zm4.95,7A3.87,3.87,0,0,0,20,10H15a3,3,0,0,1-3-3V2.05a3.91,3.91,0,0,0-.48,0H7A3,3,0,0,0,4,5V19a3,3,0,0,0,3,3H17a3,3,0,0,0,3-3Z"/><rect class="cls-2" width="24" height="24"/></g></g></svg>