<svg xmlns="http://www.w3.org/2000/svg" viewBox="0 0 24 24"><defs><style>.cls-1{fill:#f7f7f7;}</style></defs><g id="Capa_2" data-name="Capa 2"><g id="Capa_1-2" data-name="Capa 1"><path class="cls-1" d="M12,2a10.11,10.11,0,0,1,7.15,3H16a1,1,0,1,0,0,2h4.15A1.87,1.87,0,0,0,22,5.14V1a1,1,0,0,0-2,0V3.08A12,12,0,0,0,0,10.9,1,1,0,0,0,.92,12H1a1,1,0,0,0,1-.88A10,10,0,0,1,12,2Z"/><path class="cls-1" d="M23,12a1,1,0,0,0-1,.88A10,10,0,0,1,4.85,19H8a1,1,0,1,0,0-2H3.83A1.86,1.86,0,0,0,2,18.85H2V23a1,1,0,0,0,2,0V20.92A12,12,0,0,0,24,13.1a1,1,0,0,0-.92-1.1Z"/></g></g></svg>