<svg xmlns="http://www.w3.org/2000/svg" viewBox="0 0 250 250"><defs><style>.cls-1{fill:#f7f7f7;}.cls-2{fill:none;}</style></defs><g id="Capa_2" data-name="Capa 2"><g id="Capa_1-2" data-name="Capa 1"><g id="Capa_2-2" data-name="Capa 2"><g id="OBJECTS"><path class="cls-1" d="M157.19,95.17,146.42,105l23.22,25.62A62.76,62.76,0,0,1,165.55,219a62,62,0,0,1-87.94-4.11l-14.52-16,16.19-14.82,13.64,15a40,40,0,0,0,28,13.21h1.95a40.6,40.6,0,0,0,29.74-67.83L130.36,120h0L108.21,95.66A26,26,0,0,1,109.87,59a25.71,25.71,0,0,1,36.44,1.67L160,75.77l-.09.08,9.82,10.82L207.5,52,183.15,25.19a76.58,76.58,0,0,0-108.55-5,77.48,77.48,0,0,0-5,109.08l23.23,25.61L103.59,145,80.37,119.37A62.77,62.77,0,0,1,84.45,31a62,62,0,0,1,88,4.1h0l14.52,16L170.73,65.93l-13.65-15a40.21,40.21,0,0,0-57-2.66,40.69,40.69,0,0,0-2.64,57.29l22.22,24.52,0-.05,22.15,24.34A26,26,0,0,1,139.64,191a25.7,25.7,0,0,1-35.9-1.68l-13.69-15,.09-.08-9.82-10.85L42.5,198l24.35,26.84a76.18,76.18,0,0,0,53.21,25.12c1.23.06,2.45.09,3.65.09,42.44-.06,76.8-34.68,76.73-77.33a77.37,77.37,0,0,0-20-51.87Z"/></g></g><rect class="cls-2" width="250" height="250"/></g></g></svg>