<svg xmlns="http://www.w3.org/2000/svg" viewBox="0 0 24 24.08"><defs><style>.cls-1{fill:#ff3636;}.cls-2{fill:none;}</style></defs><g id="Capa_2" data-name="Capa 2"><g id="Capa_1-2" data-name="Capa 1"><g id="Capa_2-2" data-name="Capa 2"><g id="Capa_1-2-2" data-name="Capa 1-2"><path class="cls-1" d="M16.42,8.82v4a4.52,4.52,0,0,1-2.59,4.27A4.36,4.36,0,0,1,8,15a5.22,5.22,0,0,1-.29-.87,6.16,6.16,0,0,1-.17-1.29V4.66a4.49,4.49,0,0,1,3-4.41,4.35,4.35,0,0,1,5.55,2.63c.05.16.1.33.14.49a6.07,6.07,0,0,1,.17,1.34C16.44,6.13,16.42,7.48,16.42,8.82ZM9,8.8v4a4.71,4.71,0,0,0,.1,1,3,3,0,0,0,3.25,2.28,3.08,3.08,0,0,0,2.65-3V4.48a3,3,0,0,0-3-3,3.27,3.27,0,0,0-.54,0A3.11,3.11,0,0,0,9,4.69Z"/><path class="cls-1" d="M11.3,22.65V20.74c-.35-.07-.7-.12-1-.21a7.45,7.45,0,0,1-5.44-5.37,11.16,11.16,0,0,1-.35-2.08.68.68,0,0,1,.52-.8l.11,0c.42,0,.68.26.74.74a11.72,11.72,0,0,0,.24,1.68,6,6,0,0,0,3,3.9,5.71,5.71,0,0,0,6.22-.33A6.06,6.06,0,0,0,18,13.86c.05-.33.05-.67.09-1a.68.68,0,0,1,.65-.6.69.69,0,0,1,.71.67v0a7.7,7.7,0,0,1-.87,3.62,7.44,7.44,0,0,1-4.46,3.82c-.47.15-1,.23-1.47.34v1.88h2.4a1.75,1.75,0,0,1,.4.05.73.73,0,0,1,.43.77.69.69,0,0,1-.6.6H8.78a.7.7,0,0,1-.72-.68v0a.69.69,0,0,1,.66-.72H11Z"/><rect class="cls-2" y="0.08" width="24" height="24"/></g></g></g></g></svg>