<svg xmlns="http://www.w3.org/2000/svg" viewBox="0 0 24 24"><defs><style>.cls-1{fill:#f7f7f7;}.cls-2{fill:none;}</style></defs><g id="Capa_2" data-name="Capa 2"><g id="Capa_1-2" data-name="Capa 1"><path class="cls-1" d="M16.42,8.74c0,1.35,0,2.69,0,4a4.52,4.52,0,0,1-2.59,4.27,4.36,4.36,0,0,1-6.08-3,6.25,6.25,0,0,1-.17-1.29c0-2.71,0-5.43,0-8.14a4.49,4.49,0,0,1,3-4.41,4.34,4.34,0,0,1,5.69,3.12,6,6,0,0,1,.17,1.34C16.44,6.05,16.42,7.4,16.42,8.74ZM9,8.72c0,1.34,0,2.68,0,4a4.5,4.5,0,0,0,.1,1A3.05,3.05,0,0,0,12.35,16,3.09,3.09,0,0,0,15,13c0-2.87,0-5.73,0-8.6a3,3,0,0,0-3.5-3A3.1,3.1,0,0,0,9,4.61C9,6,9,7.35,9,8.72Z"/><path class="cls-1" d="M11.3,22.57V20.66c-.35-.07-.7-.12-1-.21a7.48,7.48,0,0,1-5.44-5.37A11,11,0,0,1,4.51,13a.68.68,0,0,1,.63-.82c.42,0,.68.26.74.74a13.32,13.32,0,0,0,.24,1.68,6,6,0,0,0,3,3.9,5.71,5.71,0,0,0,6.22-.33,6.09,6.09,0,0,0,2.68-4.39c.05-.33.05-.67.09-1a.67.67,0,0,1,.65-.6.69.69,0,0,1,.71.71,7.8,7.8,0,0,1-.87,3.62,7.48,7.48,0,0,1-4.46,3.82c-.47.15-1,.23-1.47.34v1.88l.25,0c.72,0,1.43,0,2.15,0a1.37,1.37,0,0,1,.4.05.71.71,0,0,1,.43.77.7.7,0,0,1-.6.6H8.78a.7.7,0,0,1-.72-.71.69.69,0,0,1,.71-.72c.75,0,1.49,0,2.24,0Z"/><rect class="cls-2" width="24" height="24"/></g></g></svg>