<svg xmlns="http://www.w3.org/2000/svg" viewBox="0 0 24 24"><defs><style>.cls-1{fill:#f7f7f7;}.cls-2{fill:none;}</style></defs><g id="Capa_2" data-name="Capa 2"><g id="Outline"><path class="cls-1" d="M19,8.42V7A7,7,0,0,0,5,7V8.42A5,5,0,0,0,2,13v6a5,5,0,0,0,5,5H17a5,5,0,0,0,5-5V13A5,5,0,0,0,19,8.42ZM7,7A5,5,0,0,1,17,7V8H7ZM20,19a3,3,0,0,1-3,3H7a3,3,0,0,1-3-3V13a3,3,0,0,1,3-3H17a3,3,0,0,1,3,3Z"/><path class="cls-1" d="M12,14a1,1,0,0,0-1,1v2a1,1,0,0,0,2,0V15A1,1,0,0,0,12,14Z"/><rect class="cls-2" width="24" height="24"/></g></g></svg>