<svg xmlns="http://www.w3.org/2000/svg" viewBox="0 0 24 24"><defs><style>.cls-1{fill:#f7f7f7;}</style></defs><g id="Capa_2" data-name="Capa 2"><g id="Outline"><path class="cls-1" d="M23.12.88a3,3,0,0,0-2.8-.8l-16,3.37a5,5,0,0,0-2.86,8.48l1.72,1.72a1,1,0,0,1,.3.71v3.17a2.86,2.86,0,0,0,.3,1.28h0l0,0A3,3,0,0,0,5.16,20.2l0,0h0a3,3,0,0,0,1.28.3H9.64a1,1,0,0,1,.71.29l1.72,1.72A4.94,4.94,0,0,0,15.59,24a5.15,5.15,0,0,0,1.6-.26,5,5,0,0,0,3.35-4l3.37-16A3,3,0,0,0,23.12.88ZM4.6,12.24,2.88,10.52a2.92,2.92,0,0,1-.72-3.07,3,3,0,0,1,2.5-2L20.5,2.09l-15,15V14.36A3,3,0,0,0,4.6,12.24Zm14,7.17a3,3,0,0,1-5.09,1.71L11.76,19.4a3,3,0,0,0-2.12-.88H6.89l15-15Z"/></g></g></svg>