<svg xmlns="http://www.w3.org/2000/svg" viewBox="0 0 24 24"><defs><style>.cls-1{fill:#f7f7f7;}.cls-2{fill:none;}</style></defs><g id="Capa_2" data-name="Capa 2"><g id="Layer_1" data-name="Layer 1"><path class="cls-1" d="M19,2H5A5,5,0,0,0,0,7V17a5,5,0,0,0,5,5H19a5,5,0,0,0,5-5V7A5,5,0,0,0,19,2ZM2,17V7A3,3,0,0,1,5,4H9V20H5A3,3,0,0,1,2,17Zm20,0a3,3,0,0,1-3,3H11V4h8a3,3,0,0,1,3,3ZM7,11a1,1,0,0,1-1,1H5a1,1,0,0,1,0-2H6A1,1,0,0,1,7,11Zm0,4a1,1,0,0,1-1,1H5a1,1,0,0,1,0-2H6A1,1,0,0,1,7,15ZM4,7A1,1,0,0,1,5,6H6A1,1,0,0,1,6,8H5A1,1,0,0,1,4,7Z"/><rect class="cls-2" width="24" height="24"/></g></g></svg>