<svg xmlns="http://www.w3.org/2000/svg" viewBox="0 0 24 24"><defs><style>.cls-1{fill:#f7f7f7;}</style></defs><g id="Capa_2" data-name="Capa 2"><g id="Layer_1" data-name="Layer 1"><path class="cls-1" d="M19.5,24a1,1,0,0,1-.93-.63l-.84-2.11-2.12-.89A1,1,0,0,1,15.1,19a1,1,0,0,1,.55-.53l2.09-.79.83-2.09a1,1,0,0,1,1.32-.54,1,1,0,0,1,.54.54l.84,2.1,2.1.84a1,1,0,0,1,.54,1.32,1,1,0,0,1-.54.54l-2.1.84-.84,2.1A1,1,0,0,1,19.5,24ZM10,21a2,2,0,0,1-1.93-1.41L6.45,14.54,1.39,12.85A2,2,0,0,1,1.44,9l5-1.53,1.7-5.05A1.94,1.94,0,0,1,10.11,1,2,2,0,0,1,12,2.44l1.53,5,5,1.61a2.05,2.05,0,0,1,0,3.88h0l-5,1.61-1.61,5A2,2,0,0,1,10,21Zm.11-18L8.2,8.56a1,1,0,0,1-.65.64L2,10.89,7.57,12.8a1,1,0,0,1,.63.65L10,19l1.83-5.53a1,1,0,0,1,.65-.65L18,11h0L12.45,9.2a1,1,0,0,1-.65-.66ZM20.5,7a1,1,0,0,1-1-.76l-.36-1.43-1.43-.38a1,1,0,0,1,0-1.94l1.39-.33.36-1.4a1,1,0,0,1,1.94,0l.35,1.42,1.42.35a1,1,0,0,1,0,1.94l-1.42.36-.35,1.41A1,1,0,0,1,20.5,7Z"/></g></g></svg>