<svg xmlns="http://www.w3.org/2000/svg" viewBox="0 0 24 24"><defs><style>.cls-1{fill:#f7f7f7;}.cls-2{fill:none;}</style></defs><g id="Capa_2" data-name="Capa 2"><g id="Layer_1" data-name="Layer 1"><path class="cls-1" d="M15.71,11.71,13.41,14l2.3,2.29a1,1,0,0,1,0,1.42,1,1,0,0,1-1.42,0L12,15.41l-2.29,2.3a1,1,0,0,1-1.42,0,1,1,0,0,1,0-1.42L10.59,14l-2.3-2.29a1,1,0,0,1,1.42-1.42L12,12.59l2.29-2.3a1,1,0,0,1,1.42,1.42ZM23,5a1,1,0,0,1-1,1h-.89L19.84,19.47a5,5,0,0,1-5,4.53H9.13a5,5,0,0,1-5-4.52L2.86,6H2A1,1,0,0,1,2,4H6.1A5,5,0,0,1,11,0h2a5,5,0,0,1,4.9,4H22a1,1,0,0,1,1,1ZM8.17,4h7.66A3,3,0,0,0,13,2H11A3,3,0,0,0,8.17,4ZM19.11,6H4.87L6.15,19.29a3,3,0,0,0,3,2.71h5.73a3,3,0,0,0,3-2.72Z"/><rect class="cls-2" width="24" height="24"/></g></g></svg>